<svg xmlns="http://www.w3.org/2000/svg" xmlns:xlink="http://www.w3.org/1999/xlink" width="1920" zoomAndPan="magnify" viewBox="0 0 1440 809.999993" height="1080" preserveAspectRatio="xMidYMid meet" version="1.0"><defs><g/><clipPath id="0a48babf6c"><rect x="0" width="796" y="0" height="189"/></clipPath><clipPath id="29835aac07"><rect x="0" width="709" y="0" height="518"/></clipPath></defs><g transform="matrix(1, 0, 0, 1, 340, 522)"><g clip-path="url(#0a48babf6c)"><g fill="#4b1616" fill-opacity="1"><g transform="translate(0.844288, 141.02892)"><g><path d="M 21.640625 -87.296875 L 40.671875 -68.46875 C 46.015625 -63.738281 49.960938 -58.203125 52.515625 -51.859375 C 55.066406 -45.515625 56.34375 -39.234375 56.34375 -33.015625 C 56.34375 -26.921875 55.222656 -21.226562 52.984375 -15.9375 C 50.742188 -10.65625 47.414062 -6.398438 43 -3.171875 C 38.582031 0.0546875 33.078125 1.671875 26.484375 1.671875 C 21.890625 1.671875 17.941406 0.304688 14.640625 -2.421875 C 11.347656 -5.160156 8.644531 -8.144531 6.53125 -11.375 L 6.15625 -11.75 C 6.03125 -12 5.9375 -12.1875 5.875 -12.3125 C 5.8125 -12.4375 5.78125 -12.5 5.78125 -12.5 C 5.40625 -12.5 5.09375 -11.875 4.84375 -10.625 C 4.601562 -9.382812 4.453125 -7.925781 4.390625 -6.25 C 4.328125 -4.570312 4.265625 -3.109375 4.203125 -1.859375 C 4.140625 -0.617188 4.109375 0 4.109375 0 L 1.5 0 L 1.5 -50.921875 L 5.03125 -50.921875 L 5.03125 -50.734375 C 5.03125 -50.242188 5.125 -48.253906 5.3125 -44.765625 C 5.5 -41.285156 5.90625 -37.179688 6.53125 -32.453125 C 7.15625 -27.734375 8.242188 -23.007812 9.796875 -18.28125 C 11.347656 -13.550781 13.457031 -9.628906 16.125 -6.515625 C 18.800781 -3.410156 22.253906 -1.859375 26.484375 -1.859375 C 31.085938 -1.859375 35.128906 -4.066406 38.609375 -8.484375 C 42.097656 -12.898438 43.84375 -20.207031 43.84375 -30.40625 C 43.84375 -35.875 43.1875 -40.316406 41.875 -43.734375 C 40.570312 -47.160156 38.988281 -49.929688 37.125 -52.046875 C 35.257812 -54.160156 33.457031 -55.960938 31.71875 -57.453125 C 31.34375 -57.828125 30.96875 -58.171875 30.59375 -58.484375 C 30.21875 -58.796875 29.84375 -59.140625 29.46875 -59.515625 L 15.484375 -73.5 C 11.503906 -77.101562 8.519531 -81.421875 6.53125 -86.453125 C 4.539062 -91.492188 3.546875 -96.503906 3.546875 -101.484375 C 3.546875 -106.703125 4.507812 -111.582031 6.4375 -116.125 C 8.363281 -120.664062 11.222656 -124.363281 15.015625 -127.21875 C 18.804688 -130.082031 23.5 -131.515625 29.09375 -131.515625 C 33.695312 -131.515625 37.582031 -130.175781 40.75 -127.5 C 43.925781 -124.832031 46.507812 -121.878906 48.5 -118.640625 C 48.75 -118.265625 48.9375 -117.984375 49.0625 -117.796875 C 49.1875 -117.617188 49.25 -117.53125 49.25 -117.53125 C 49.625 -117.53125 49.929688 -118.148438 50.171875 -119.390625 C 50.421875 -120.628906 50.578125 -122.085938 50.640625 -123.765625 C 50.703125 -125.453125 50.765625 -126.914062 50.828125 -128.15625 C 50.890625 -129.394531 50.921875 -130.015625 50.921875 -130.015625 L 53.53125 -130.015625 L 53.53125 -78.90625 L 50 -78.90625 L 50 -79.28125 C 50 -80.03125 49.90625 -82.175781 49.71875 -85.71875 C 49.53125 -89.257812 49.125 -93.394531 48.5 -98.125 C 47.875 -102.851562 46.816406 -107.484375 45.328125 -112.015625 C 43.835938 -116.554688 41.785156 -120.347656 39.171875 -123.390625 C 36.554688 -126.441406 33.195312 -127.96875 29.09375 -127.96875 C 25.363281 -127.96875 22.128906 -125.820312 19.390625 -121.53125 C 16.660156 -117.238281 15.296875 -111.984375 15.296875 -105.765625 C 15.296875 -100.671875 16.007812 -96.660156 17.4375 -93.734375 C 18.875 -90.816406 20.273438 -88.671875 21.640625 -87.296875 Z M 21.640625 -87.296875 "/></g></g></g><g fill="#4b1616" fill-opacity="1"><g transform="translate(54.933375, 141.02892)"><g><path d="M 54.65625 -108.015625 C 53.039062 -114.234375 50.398438 -119.113281 46.734375 -122.65625 C 43.066406 -126.195312 39.054688 -127.96875 34.703125 -127.96875 C 30.722656 -127.96875 27.425781 -126.285156 24.8125 -122.921875 C 22.195312 -119.566406 20.144531 -115.28125 18.65625 -110.0625 C 17.164062 -104.84375 16.046875 -99.304688 15.296875 -93.453125 C 14.546875 -87.609375 14.078125 -82.195312 13.890625 -77.21875 C 13.710938 -72.25 13.625 -68.335938 13.625 -65.484375 C 13.625 -62.617188 13.710938 -58.664062 13.890625 -53.625 C 14.078125 -48.59375 14.515625 -43.15625 15.203125 -37.3125 C 15.890625 -31.46875 16.976562 -25.929688 18.46875 -20.703125 C 19.957031 -15.484375 22.007812 -11.191406 24.625 -7.828125 C 27.238281 -4.472656 30.597656 -2.796875 34.703125 -2.796875 C 38.304688 -2.796875 41.691406 -4.503906 44.859375 -7.921875 C 48.035156 -11.347656 50.957031 -16.109375 53.625 -22.203125 C 56.300781 -28.296875 58.570312 -35.195312 60.4375 -42.90625 L 61.75 -42.90625 L 61.75 -23.3125 C 60.132812 -19.332031 58.144531 -15.507812 55.78125 -11.84375 C 53.414062 -8.175781 50.550781 -5.191406 47.1875 -2.890625 C 43.832031 -0.585938 39.671875 0.5625 34.703125 0.5625 C 28.859375 0.5625 23.972656 -0.988281 20.046875 -4.09375 C 16.128906 -7.207031 12.925781 -11.25 10.4375 -16.21875 C 7.957031 -21.195312 6.0625 -26.609375 4.75 -32.453125 C 3.445312 -38.304688 2.578125 -44.09375 2.140625 -49.8125 C 1.710938 -55.53125 1.5 -60.503906 1.5 -64.734375 C 1.5 -68.960938 1.710938 -73.96875 2.140625 -79.75 C 2.578125 -85.53125 3.445312 -91.40625 4.75 -97.375 C 6.0625 -103.34375 7.925781 -108.90625 10.34375 -114.0625 C 12.769531 -119.226562 15.972656 -123.394531 19.953125 -126.5625 C 23.941406 -129.738281 28.859375 -131.328125 34.703125 -131.328125 C 38.929688 -131.328125 42.878906 -130.332031 46.546875 -128.34375 C 50.210938 -126.351562 53.414062 -123.179688 56.15625 -118.828125 C 56.40625 -118.703125 56.53125 -118.578125 56.53125 -118.453125 C 56.53125 -118.328125 56.53125 -118.265625 56.53125 -118.265625 C 56.894531 -118.265625 57.234375 -118.882812 57.546875 -120.125 C 57.859375 -121.375 58.109375 -122.804688 58.296875 -124.421875 C 58.484375 -126.046875 58.609375 -127.476562 58.671875 -128.71875 C 58.734375 -129.957031 58.765625 -130.578125 58.765625 -130.578125 L 61.375 -130.578125 L 61.375 -79.28125 L 57.828125 -79.28125 C 57.828125 -79.28125 57.796875 -80.242188 57.734375 -82.171875 C 57.671875 -84.097656 57.515625 -86.550781 57.265625 -89.53125 C 57.015625 -92.519531 56.671875 -95.660156 56.234375 -98.953125 C 55.804688 -102.253906 55.28125 -105.273438 54.65625 -108.015625 Z M 54.65625 -108.015625 "/></g></g></g><g fill="#4b1616" fill-opacity="1"><g transform="translate(114.431433, 141.02892)"><g><path d="M 61.75 -130.578125 L 61.75 -128.71875 C 61.75 -128.71875 61.125 -128.5 59.875 -128.0625 C 58.632812 -127.625 57.390625 -126.503906 56.140625 -124.703125 C 54.898438 -122.898438 54.28125 -119.882812 54.28125 -115.65625 L 54.28125 -14.921875 C 54.28125 -10.816406 54.898438 -7.832031 56.140625 -5.96875 C 57.390625 -4.101562 58.632812 -2.953125 59.875 -2.515625 C 61.125 -2.078125 61.75 -1.859375 61.75 -1.859375 L 61.75 0 L 35.078125 0 L 35.078125 -1.859375 C 35.078125 -1.859375 35.695312 -2.078125 36.9375 -2.515625 C 38.175781 -2.953125 39.414062 -4.070312 40.65625 -5.875 C 41.90625 -7.675781 42.53125 -10.691406 42.53125 -14.921875 L 42.53125 -80.59375 L 20.703125 -80.59375 L 20.703125 -14.921875 C 20.703125 -10.816406 21.320312 -7.832031 22.5625 -5.96875 C 23.8125 -4.101562 25.054688 -2.953125 26.296875 -2.515625 C 27.546875 -2.078125 28.171875 -1.859375 28.171875 -1.859375 L 28.171875 0 L 1.5 0 L 1.5 -1.859375 C 1.5 -1.859375 2.117188 -2.078125 3.359375 -2.515625 C 4.597656 -2.953125 5.835938 -4.070312 7.078125 -5.875 C 8.328125 -7.675781 8.953125 -10.691406 8.953125 -14.921875 L 8.953125 -115.65625 C 8.953125 -119.882812 8.328125 -122.898438 7.078125 -124.703125 C 5.835938 -126.503906 4.597656 -127.625 3.359375 -128.0625 C 2.117188 -128.5 1.5 -128.71875 1.5 -128.71875 L 1.5 -130.578125 L 28.171875 -130.578125 L 28.171875 -128.71875 C 28.171875 -128.71875 27.546875 -128.5 26.296875 -128.0625 C 25.054688 -127.625 23.8125 -126.441406 22.5625 -124.515625 C 21.320312 -122.585938 20.703125 -119.320312 20.703125 -114.71875 L 20.703125 -83.953125 L 42.53125 -83.953125 L 42.53125 -115.65625 C 42.53125 -119.882812 41.90625 -122.898438 40.65625 -124.703125 C 39.414062 -126.503906 38.175781 -127.625 36.9375 -128.0625 C 35.695312 -128.5 35.078125 -128.71875 35.078125 -128.71875 L 35.078125 -130.578125 Z M 61.75 -130.578125 "/></g></g></g><g fill="#4b1616" fill-opacity="1"><g transform="translate(173.92949, 141.02892)"><g><path d="M 82.453125 -128.90625 L 82.640625 -130.578125 L 102.421875 -130.578125 L 102.234375 -128.90625 C 102.234375 -128.90625 101.578125 -128.53125 100.265625 -127.78125 C 98.960938 -127.039062 97.5625 -125.519531 96.0625 -123.21875 C 94.570312 -120.914062 93.519531 -117.335938 92.90625 -112.484375 L 77.421875 -18.09375 C 77.296875 -17.34375 77.234375 -16.65625 77.234375 -16.03125 C 77.234375 -15.414062 77.234375 -14.796875 77.234375 -14.171875 C 77.234375 -10.316406 77.726562 -7.550781 78.71875 -5.875 C 79.71875 -4.195312 80.585938 -3.109375 81.328125 -2.609375 C 81.828125 -2.359375 82.265625 -2.171875 82.640625 -2.046875 C 83.015625 -1.921875 83.203125 -1.859375 83.203125 -1.859375 L 83.578125 0 L 56.890625 0 L 56.703125 -1.859375 C 56.703125 -1.859375 57.140625 -2.109375 58.015625 -2.609375 C 58.890625 -3.109375 59.726562 -4.101562 60.53125 -5.59375 C 61.34375 -7.082031 61.75 -9.382812 61.75 -12.5 C 61.75 -13.363281 61.75 -14.265625 61.75 -15.203125 C 61.75 -16.140625 61.625 -17.101562 61.375 -18.09375 L 52.609375 -69.015625 C 51.234375 -60.566406 49.832031 -52.082031 48.40625 -43.5625 C 46.976562 -35.039062 45.582031 -26.550781 44.21875 -18.09375 C 44.09375 -17.34375 44.03125 -16.65625 44.03125 -16.03125 C 44.03125 -15.414062 44.03125 -14.796875 44.03125 -14.171875 C 44.03125 -10.316406 44.523438 -7.550781 45.515625 -5.875 C 46.515625 -4.195312 47.382812 -3.109375 48.125 -2.609375 C 48.625 -2.359375 49.09375 -2.171875 49.53125 -2.046875 C 49.96875 -1.921875 50.1875 -1.859375 50.1875 -1.859375 L 50.375 0 L 23.6875 0 L 23.5 -1.859375 C 23.5 -1.859375 23.929688 -2.109375 24.796875 -2.609375 C 25.671875 -3.109375 26.515625 -4.101562 27.328125 -5.59375 C 28.140625 -7.082031 28.546875 -9.382812 28.546875 -12.5 C 28.546875 -13.363281 28.546875 -14.265625 28.546875 -15.203125 C 28.546875 -16.140625 28.421875 -17.101562 28.171875 -18.09375 L 11.9375 -112.484375 C 11.1875 -117.335938 9.972656 -120.914062 8.296875 -123.21875 C 6.617188 -125.519531 5.09375 -127.039062 3.71875 -127.78125 C 2.351562 -128.53125 1.671875 -128.90625 1.671875 -128.90625 L 1.5 -130.578125 L 27.984375 -130.578125 L 28.359375 -128.90625 C 28.359375 -128.90625 27.953125 -128.65625 27.140625 -128.15625 C 26.335938 -127.65625 25.5 -126.628906 24.625 -125.078125 C 23.75 -123.523438 23.3125 -121.128906 23.3125 -117.890625 C 23.3125 -117.023438 23.34375 -116.15625 23.40625 -115.28125 C 23.46875 -114.414062 23.5625 -113.484375 23.6875 -112.484375 L 39.546875 -19.59375 L 50.1875 -83.578125 C 50.925781 -88.421875 51.695312 -93.269531 52.5 -98.125 C 53.3125 -102.976562 54.09375 -107.765625 54.84375 -112.484375 C 54.96875 -113.109375 55.03125 -113.757812 55.03125 -114.4375 C 55.03125 -115.125 55.03125 -115.78125 55.03125 -116.40625 L 55.03125 -116.78125 C 55.03125 -117.03125 55.03125 -117.21875 55.03125 -117.34375 C 55.03125 -117.46875 55.03125 -117.59375 55.03125 -117.71875 C 54.90625 -120.945312 54.375 -123.367188 53.4375 -124.984375 C 52.507812 -126.597656 51.578125 -127.65625 50.640625 -128.15625 C 49.710938 -128.65625 49.25 -128.90625 49.25 -128.90625 L 49.4375 -130.578125 L 69.203125 -130.578125 L 69.015625 -128.90625 C 69.015625 -128.90625 68.363281 -128.53125 67.0625 -127.78125 C 65.757812 -127.039062 64.359375 -125.519531 62.859375 -123.21875 C 61.367188 -120.914062 60.3125 -117.335938 59.6875 -112.484375 L 58.390625 -104.09375 L 72.75 -19.59375 L 88.046875 -112.484375 C 88.171875 -113.109375 88.234375 -113.757812 88.234375 -114.4375 C 88.234375 -115.125 88.234375 -115.78125 88.234375 -116.40625 C 88.234375 -120.007812 87.765625 -122.710938 86.828125 -124.515625 C 85.898438 -126.316406 84.9375 -127.5 83.9375 -128.0625 C 82.945312 -128.625 82.453125 -128.90625 82.453125 -128.90625 Z M 82.453125 -128.90625 "/></g></g></g><g fill="#4b1616" fill-opacity="1"><g transform="translate(274.088057, 141.02892)"><g><path d="M 52.421875 0 L 1.5 0 L 1.5 -1.859375 C 1.5 -1.859375 2.117188 -2.203125 3.359375 -2.890625 C 4.597656 -3.578125 5.835938 -5.066406 7.078125 -7.359375 C 8.328125 -9.660156 8.953125 -13.238281 8.953125 -18.09375 L 8.953125 -112.484375 C 8.953125 -117.585938 8.328125 -121.257812 7.078125 -123.5 C 5.835938 -125.738281 4.597656 -127.164062 3.359375 -127.78125 C 2.117188 -128.40625 1.5 -128.71875 1.5 -128.71875 L 1.5 -130.578125 L 52.421875 -130.578125 L 52.421875 -91.96875 L 49.8125 -91.96875 C 49.8125 -91.96875 49.78125 -93.148438 49.71875 -95.515625 C 49.65625 -97.878906 49.46875 -100.832031 49.15625 -104.375 C 48.84375 -107.914062 48.375 -111.425781 47.75 -114.90625 C 47.132812 -118.394531 46.203125 -121.316406 44.953125 -123.671875 C 43.710938 -126.035156 42.160156 -127.21875 40.296875 -127.21875 L 20.703125 -127.21875 L 20.703125 -83.765625 L 36 -83.765625 C 37.375 -83.765625 38.460938 -85.035156 39.265625 -87.578125 C 40.078125 -90.128906 40.664062 -93.050781 41.03125 -96.34375 C 41.40625 -99.644531 41.625 -102.566406 41.6875 -105.109375 C 41.75 -107.660156 41.78125 -108.9375 41.78125 -108.9375 L 44.390625 -108.9375 L 44.390625 -55.21875 L 41.78125 -55.21875 C 41.78125 -56.207031 41.75 -58.039062 41.6875 -60.71875 C 41.625 -63.394531 41.4375 -66.253906 41.125 -69.296875 C 40.820312 -72.347656 40.265625 -74.960938 39.453125 -77.140625 C 38.640625 -79.316406 37.550781 -80.40625 36.1875 -80.40625 L 20.703125 -80.40625 L 20.703125 -3.359375 L 40.296875 -3.359375 C 42.160156 -3.359375 43.710938 -4.539062 44.953125 -6.90625 C 46.203125 -9.269531 47.132812 -12.191406 47.75 -15.671875 C 48.375 -19.148438 48.84375 -22.660156 49.15625 -26.203125 C 49.46875 -29.753906 49.65625 -32.707031 49.71875 -35.0625 C 49.78125 -37.425781 49.8125 -38.609375 49.8125 -38.609375 L 52.421875 -38.609375 Z M 52.421875 0 "/></g></g></g><g fill="#4b1616" fill-opacity="1"><g transform="translate(324.260304, 141.02892)"><g><path d="M 55.03125 -97.9375 C 55.03125 -94.582031 54.71875 -90.941406 54.09375 -87.015625 C 53.476562 -83.097656 52.390625 -79.398438 50.828125 -75.921875 C 49.273438 -72.441406 47.128906 -69.582031 44.390625 -67.34375 C 41.660156 -65.101562 38.117188 -63.984375 33.765625 -63.984375 L 22.390625 -64.171875 L 32.265625 -58.953125 L 49.625 -15.859375 C 51.488281 -11.378906 53.289062 -8.144531 55.03125 -6.15625 C 56.769531 -4.164062 58.164062 -2.953125 59.21875 -2.515625 C 60.28125 -2.078125 60.8125 -1.859375 60.8125 -1.859375 L 60.8125 0 L 42.15625 0 L 20.703125 -60.4375 L 20.703125 -18.09375 C 20.703125 -13.238281 21.320312 -9.660156 22.5625 -7.359375 C 23.8125 -5.066406 25.054688 -3.578125 26.296875 -2.890625 C 27.546875 -2.203125 28.171875 -1.859375 28.171875 -1.859375 L 28.171875 0 L 1.5 0 L 1.5 -1.859375 C 1.738281 -1.984375 2.382812 -2.390625 3.4375 -3.078125 C 4.5 -3.765625 5.585938 -5.070312 6.703125 -7 C 7.828125 -8.925781 8.515625 -11.816406 8.765625 -15.671875 L 8.765625 -117.53125 C 8.515625 -121.132812 7.796875 -123.710938 6.609375 -125.265625 C 5.429688 -126.816406 4.285156 -127.78125 3.171875 -128.15625 C 2.054688 -128.53125 1.5 -128.71875 1.5 -128.71875 L 1.5 -130.578125 L 28.921875 -130.578125 C 33.890625 -130.578125 38.019531 -129.550781 41.3125 -127.5 C 44.613281 -125.445312 47.257812 -122.773438 49.25 -119.484375 C 51.238281 -116.191406 52.664062 -112.644531 53.53125 -108.84375 C 54.40625 -105.050781 54.90625 -101.414062 55.03125 -97.9375 Z M 29.09375 -66.96875 C 32.332031 -66.96875 34.914062 -68.148438 36.84375 -70.515625 C 38.769531 -72.878906 40.226562 -75.832031 41.21875 -79.375 C 42.21875 -82.914062 42.875 -86.457031 43.1875 -90 C 43.5 -93.550781 43.65625 -96.507812 43.65625 -98.875 L 43.65625 -99.25 C 43.65625 -106.332031 42.84375 -111.800781 41.21875 -115.65625 C 39.601562 -119.507812 37.707031 -122.242188 35.53125 -123.859375 C 33.351562 -125.484375 31.457031 -126.476562 29.84375 -126.84375 C 28.226562 -127.21875 27.421875 -127.40625 27.421875 -127.40625 L 20.703125 -127.40625 L 20.703125 -66.96875 Z M 29.09375 -66.96875 "/></g></g></g><g fill="#4b1616" fill-opacity="1"><g transform="translate(382.639272, 141.02892)"><g><path d="M 1.5 -92.90625 L 1.5 -130.578125 L 51.296875 -130.578125 L 51.296875 -127.59375 L 13.796875 -3.171875 L 39.359375 -3.171875 C 41.222656 -3.171875 42.742188 -4.320312 43.921875 -6.625 C 45.109375 -8.925781 46.007812 -11.785156 46.625 -15.203125 C 47.25 -18.617188 47.71875 -22.066406 48.03125 -25.546875 C 48.34375 -29.035156 48.53125 -31.929688 48.59375 -34.234375 C 48.65625 -36.535156 48.6875 -37.6875 48.6875 -37.6875 L 51.296875 -37.6875 L 51.296875 0 L 1.5 0 L 1.5 -3.171875 L 39.171875 -127.40625 L 13.4375 -127.40625 C 11.570312 -127.40625 10.046875 -126.253906 8.859375 -123.953125 C 7.679688 -121.660156 6.78125 -118.800781 6.15625 -115.375 C 5.53125 -111.957031 5.0625 -108.503906 4.75 -105.015625 C 4.445312 -101.535156 4.265625 -98.644531 4.203125 -96.34375 C 4.140625 -94.050781 4.109375 -92.90625 4.109375 -92.90625 Z M 1.5 -92.90625 "/></g></g></g><g fill="#4b1616" fill-opacity="1"><g transform="translate(431.692431, 141.02892)"><g><path d="M 52.421875 0 L 1.5 0 L 1.5 -1.859375 C 1.5 -1.859375 2.117188 -2.203125 3.359375 -2.890625 C 4.597656 -3.578125 5.835938 -5.066406 7.078125 -7.359375 C 8.328125 -9.660156 8.953125 -13.238281 8.953125 -18.09375 L 8.953125 -112.484375 C 8.953125 -117.585938 8.328125 -121.257812 7.078125 -123.5 C 5.835938 -125.738281 4.597656 -127.164062 3.359375 -127.78125 C 2.117188 -128.40625 1.5 -128.71875 1.5 -128.71875 L 1.5 -130.578125 L 52.421875 -130.578125 L 52.421875 -91.96875 L 49.8125 -91.96875 C 49.8125 -91.96875 49.78125 -93.148438 49.71875 -95.515625 C 49.65625 -97.878906 49.46875 -100.832031 49.15625 -104.375 C 48.84375 -107.914062 48.375 -111.425781 47.75 -114.90625 C 47.132812 -118.394531 46.203125 -121.316406 44.953125 -123.671875 C 43.710938 -126.035156 42.160156 -127.21875 40.296875 -127.21875 L 20.703125 -127.21875 L 20.703125 -83.765625 L 36 -83.765625 C 37.375 -83.765625 38.460938 -85.035156 39.265625 -87.578125 C 40.078125 -90.128906 40.664062 -93.050781 41.03125 -96.34375 C 41.40625 -99.644531 41.625 -102.566406 41.6875 -105.109375 C 41.75 -107.660156 41.78125 -108.9375 41.78125 -108.9375 L 44.390625 -108.9375 L 44.390625 -55.21875 L 41.78125 -55.21875 C 41.78125 -56.207031 41.75 -58.039062 41.6875 -60.71875 C 41.625 -63.394531 41.4375 -66.253906 41.125 -69.296875 C 40.820312 -72.347656 40.265625 -74.960938 39.453125 -77.140625 C 38.640625 -79.316406 37.550781 -80.40625 36.1875 -80.40625 L 20.703125 -80.40625 L 20.703125 -3.359375 L 40.296875 -3.359375 C 42.160156 -3.359375 43.710938 -4.539062 44.953125 -6.90625 C 46.203125 -9.269531 47.132812 -12.191406 47.75 -15.671875 C 48.375 -19.148438 48.84375 -22.660156 49.15625 -26.203125 C 49.46875 -29.753906 49.65625 -32.707031 49.71875 -35.0625 C 49.78125 -37.425781 49.8125 -38.609375 49.8125 -38.609375 L 52.421875 -38.609375 Z M 52.421875 0 "/></g></g></g><g fill="#4b1616" fill-opacity="1"><g transform="translate(481.864678, 141.02892)"><g><path d="M 59.515625 -115.65625 L 59.515625 -14.921875 C 59.515625 -10.816406 60.132812 -7.832031 61.375 -5.96875 C 62.613281 -4.101562 63.851562 -2.953125 65.09375 -2.515625 C 66.34375 -2.078125 66.96875 -1.859375 66.96875 -1.859375 L 66.96875 0 L 40.296875 0 L 40.296875 -1.859375 C 40.296875 -1.859375 40.914062 -2.078125 42.15625 -2.515625 C 43.40625 -2.953125 44.648438 -4.070312 45.890625 -5.875 C 47.128906 -7.675781 47.75 -10.691406 47.75 -14.921875 L 47.75 -18.28125 L 20.703125 -105.765625 L 20.703125 -14.921875 C 20.703125 -10.816406 21.320312 -7.832031 22.5625 -5.96875 C 23.8125 -4.101562 25.054688 -2.953125 26.296875 -2.515625 C 27.546875 -2.078125 28.171875 -1.859375 28.171875 -1.859375 L 28.171875 0 L 1.5 0 L 1.5 -1.859375 C 1.5 -1.859375 2.117188 -2.078125 3.359375 -2.515625 C 4.597656 -2.953125 5.835938 -4.070312 7.078125 -5.875 C 8.328125 -7.675781 8.953125 -10.691406 8.953125 -14.921875 L 8.953125 -115.65625 C 8.953125 -119.882812 8.328125 -122.898438 7.078125 -124.703125 C 5.835938 -126.503906 4.597656 -127.625 3.359375 -128.0625 C 2.117188 -128.5 1.5 -128.71875 1.5 -128.71875 L 1.5 -130.578125 L 28.171875 -130.578125 L 28.171875 -128.71875 C 28.171875 -128.71875 27.671875 -128.59375 26.671875 -128.34375 C 25.679688 -128.09375 24.59375 -127.34375 23.40625 -126.09375 C 22.226562 -124.851562 21.390625 -122.742188 20.890625 -119.765625 L 47.75 -33.390625 L 47.75 -115.65625 C 47.75 -119.882812 47.128906 -122.898438 45.890625 -124.703125 C 44.648438 -126.503906 43.40625 -127.625 42.15625 -128.0625 C 40.914062 -128.5 40.296875 -128.71875 40.296875 -128.71875 L 40.296875 -130.578125 L 66.96875 -130.578125 L 66.96875 -128.71875 C 66.96875 -128.71875 66.34375 -128.5 65.09375 -128.0625 C 63.851562 -127.625 62.613281 -126.503906 61.375 -124.703125 C 60.132812 -122.898438 59.515625 -119.882812 59.515625 -115.65625 Z M 59.515625 -115.65625 "/></g></g></g><g fill="#4b1616" fill-opacity="1"><g transform="translate(546.585171, 141.02892)"><g><path d="M 40.109375 -65.84375 C 46.203125 -63.851562 50.925781 -60.585938 54.28125 -56.046875 C 57.644531 -51.515625 59.328125 -44.460938 59.328125 -34.890625 L 59.328125 -34.328125 C 59.328125 -31.085938 59.015625 -27.507812 58.390625 -23.59375 C 57.765625 -19.675781 56.582031 -15.914062 54.84375 -12.3125 C 53.101562 -8.707031 50.707031 -5.753906 47.65625 -3.453125 C 44.613281 -1.148438 40.664062 0 35.8125 0 L 1.5 0 L 1.5 -1.859375 C 1.5 -1.859375 2.054688 -2.046875 3.171875 -2.421875 C 4.285156 -2.796875 5.429688 -3.757812 6.609375 -5.3125 C 7.796875 -6.863281 8.515625 -9.445312 8.765625 -13.0625 L 8.765625 -117.53125 C 8.515625 -121.132812 7.796875 -123.710938 6.609375 -125.265625 C 5.429688 -126.816406 4.285156 -127.78125 3.171875 -128.15625 C 2.054688 -128.53125 1.5 -128.71875 1.5 -128.71875 L 1.5 -130.578125 L 30.03125 -130.578125 C 35.007812 -130.578125 39.175781 -129.550781 42.53125 -127.5 C 45.882812 -125.445312 48.523438 -122.773438 50.453125 -119.484375 C 52.390625 -116.191406 53.789062 -112.644531 54.65625 -108.84375 C 55.53125 -105.050781 56.03125 -101.414062 56.15625 -97.9375 L 56.15625 -97.75 C 56.15625 -93.769531 55.8125 -89.476562 55.125 -84.875 C 54.4375 -80.28125 52.972656 -76.207031 50.734375 -72.65625 C 48.503906 -69.113281 44.898438 -66.84375 39.921875 -65.84375 Z M 28.921875 -127.40625 L 20.703125 -127.40625 L 20.703125 -66.78125 L 30.40625 -66.78125 C 33.632812 -66.78125 36.210938 -68.054688 38.140625 -70.609375 C 40.078125 -73.160156 41.507812 -76.332031 42.4375 -80.125 C 43.375 -83.914062 43.992188 -87.675781 44.296875 -91.40625 C 44.609375 -95.132812 44.765625 -98.179688 44.765625 -100.546875 L 44.765625 -100.734375 C 44.765625 -107.078125 44.050781 -112.082031 42.625 -115.75 C 41.195312 -119.414062 39.519531 -122.054688 37.59375 -123.671875 C 35.664062 -125.296875 33.859375 -126.320312 32.171875 -126.75 C 30.492188 -127.1875 29.410156 -127.40625 28.921875 -127.40625 Z M 47.390625 -37.6875 L 47.390625 -37.875 C 47.390625 -44.09375 46.671875 -48.941406 45.234375 -52.421875 C 43.804688 -55.898438 42.128906 -58.414062 40.203125 -59.96875 C 38.273438 -61.53125 36.59375 -62.492188 35.15625 -62.859375 C 33.726562 -63.234375 33.015625 -63.421875 33.015625 -63.421875 L 20.703125 -63.421875 L 20.703125 -3.359375 L 32.828125 -3.359375 C 36.429688 -3.359375 39.226562 -4.753906 41.21875 -7.546875 C 43.21875 -10.347656 44.648438 -13.769531 45.515625 -17.8125 C 46.390625 -21.851562 46.921875 -25.707031 47.109375 -29.375 C 47.296875 -33.050781 47.390625 -35.820312 47.390625 -37.6875 Z M 47.390625 -37.6875 "/></g></g></g><g fill="#4b1616" fill-opacity="1"><g transform="translate(603.658544, 141.02892)"><g><path d="M 1.5 0 L 1.671875 -1.671875 C 1.671875 -1.671875 2.320312 -2.046875 3.625 -2.796875 C 4.9375 -3.546875 6.367188 -5.066406 7.921875 -7.359375 C 9.484375 -9.660156 10.507812 -13.238281 11 -18.09375 L 26.484375 -112.484375 C 26.609375 -113.234375 26.671875 -113.976562 26.671875 -114.71875 C 26.671875 -115.46875 26.671875 -116.15625 26.671875 -116.78125 C 26.671875 -120.507812 26.171875 -123.179688 25.171875 -124.796875 C 24.179688 -126.410156 23.316406 -127.46875 22.578125 -127.96875 C 22.078125 -128.21875 21.609375 -128.4375 21.171875 -128.625 C 20.734375 -128.8125 20.515625 -128.90625 20.515625 -128.90625 L 20.328125 -130.578125 L 46.828125 -130.578125 L 47.203125 -128.90625 C 47.203125 -128.90625 46.765625 -128.65625 45.890625 -128.15625 C 45.015625 -127.65625 44.140625 -126.660156 43.265625 -125.171875 C 42.398438 -123.679688 41.96875 -121.316406 41.96875 -118.078125 C 41.96875 -116.460938 42.15625 -114.597656 42.53125 -112.484375 C 45.269531 -96.691406 47.972656 -80.957031 50.640625 -65.28125 C 53.316406 -49.613281 56.023438 -33.882812 58.765625 -18.09375 C 59.628906 -13.238281 60.835938 -9.660156 62.390625 -7.359375 C 63.953125 -5.066406 65.414062 -3.546875 66.78125 -2.796875 C 68.144531 -2.046875 68.828125 -1.671875 68.828125 -1.671875 L 69.203125 0 L 43.28125 0 L 43.09375 -1.859375 C 43.09375 -1.859375 43.492188 -2.109375 44.296875 -2.609375 C 45.109375 -3.109375 45.914062 -4.132812 46.71875 -5.6875 C 47.53125 -7.238281 47.9375 -9.570312 47.9375 -12.6875 C 47.9375 -13.425781 47.9375 -14.296875 47.9375 -15.296875 C 47.9375 -16.296875 47.8125 -17.226562 47.5625 -18.09375 L 43.46875 -44.390625 L 19.78125 -44.390625 C 19.53125 -42.648438 19.09375 -40.039062 18.46875 -36.5625 C 17.84375 -33.082031 17.25 -29.566406 16.6875 -26.015625 C 16.132812 -22.472656 15.734375 -19.832031 15.484375 -18.09375 C 15.359375 -17.46875 15.296875 -16.8125 15.296875 -16.125 C 15.296875 -15.445312 15.296875 -14.796875 15.296875 -14.171875 C 15.296875 -10.566406 15.789062 -7.863281 16.78125 -6.0625 C 17.78125 -4.257812 18.742188 -3.078125 19.671875 -2.515625 C 20.609375 -1.953125 21.078125 -1.671875 21.078125 -1.671875 L 20.890625 0 Z M 19.953125 -48.5 L 42.53125 -48.3125 L 30.78125 -114.359375 L 20.515625 -48.5 Z M 19.953125 -48.5 "/></g></g></g><g fill="#4b1616" fill-opacity="1"><g transform="translate(670.617215, 141.02892)"><g><path d="M 54.65625 -108.015625 C 53.039062 -114.234375 50.398438 -119.113281 46.734375 -122.65625 C 43.066406 -126.195312 39.054688 -127.96875 34.703125 -127.96875 C 30.722656 -127.96875 27.425781 -126.285156 24.8125 -122.921875 C 22.195312 -119.566406 20.144531 -115.28125 18.65625 -110.0625 C 17.164062 -104.84375 16.046875 -99.304688 15.296875 -93.453125 C 14.546875 -87.609375 14.078125 -82.195312 13.890625 -77.21875 C 13.710938 -72.25 13.625 -68.335938 13.625 -65.484375 C 13.625 -62.617188 13.710938 -58.664062 13.890625 -53.625 C 14.078125 -48.59375 14.515625 -43.15625 15.203125 -37.3125 C 15.890625 -31.46875 16.976562 -25.929688 18.46875 -20.703125 C 19.957031 -15.484375 22.007812 -11.191406 24.625 -7.828125 C 27.238281 -4.472656 30.597656 -2.796875 34.703125 -2.796875 C 38.304688 -2.796875 41.691406 -4.503906 44.859375 -7.921875 C 48.035156 -11.347656 50.957031 -16.109375 53.625 -22.203125 C 56.300781 -28.296875 58.570312 -35.195312 60.4375 -42.90625 L 61.75 -42.90625 L 61.75 -23.3125 C 60.132812 -19.332031 58.144531 -15.507812 55.78125 -11.84375 C 53.414062 -8.175781 50.550781 -5.191406 47.1875 -2.890625 C 43.832031 -0.585938 39.671875 0.5625 34.703125 0.5625 C 28.859375 0.5625 23.972656 -0.988281 20.046875 -4.09375 C 16.128906 -7.207031 12.925781 -11.25 10.4375 -16.21875 C 7.957031 -21.195312 6.0625 -26.609375 4.75 -32.453125 C 3.445312 -38.304688 2.578125 -44.09375 2.140625 -49.8125 C 1.710938 -55.53125 1.5 -60.503906 1.5 -64.734375 C 1.5 -68.960938 1.710938 -73.96875 2.140625 -79.75 C 2.578125 -85.53125 3.445312 -91.40625 4.75 -97.375 C 6.0625 -103.34375 7.925781 -108.90625 10.34375 -114.0625 C 12.769531 -119.226562 15.972656 -123.394531 19.953125 -126.5625 C 23.941406 -129.738281 28.859375 -131.328125 34.703125 -131.328125 C 38.929688 -131.328125 42.878906 -130.332031 46.546875 -128.34375 C 50.210938 -126.351562 53.414062 -123.179688 56.15625 -118.828125 C 56.40625 -118.703125 56.53125 -118.578125 56.53125 -118.453125 C 56.53125 -118.328125 56.53125 -118.265625 56.53125 -118.265625 C 56.894531 -118.265625 57.234375 -118.882812 57.546875 -120.125 C 57.859375 -121.375 58.109375 -122.804688 58.296875 -124.421875 C 58.484375 -126.046875 58.609375 -127.476562 58.671875 -128.71875 C 58.734375 -129.957031 58.765625 -130.578125 58.765625 -130.578125 L 61.375 -130.578125 L 61.375 -79.28125 L 57.828125 -79.28125 C 57.828125 -79.28125 57.796875 -80.242188 57.734375 -82.171875 C 57.671875 -84.097656 57.515625 -86.550781 57.265625 -89.53125 C 57.015625 -92.519531 56.671875 -95.660156 56.234375 -98.953125 C 55.804688 -102.253906 55.28125 -105.273438 54.65625 -108.015625 Z M 54.65625 -108.015625 "/></g></g></g><g fill="#4b1616" fill-opacity="1"><g transform="translate(730.115329, 141.02892)"><g><path d="M 61.75 -130.578125 L 61.75 -128.71875 C 61.75 -128.71875 61.125 -128.5 59.875 -128.0625 C 58.632812 -127.625 57.390625 -126.503906 56.140625 -124.703125 C 54.898438 -122.898438 54.28125 -119.882812 54.28125 -115.65625 L 54.28125 -14.921875 C 54.28125 -10.816406 54.898438 -7.832031 56.140625 -5.96875 C 57.390625 -4.101562 58.632812 -2.953125 59.875 -2.515625 C 61.125 -2.078125 61.75 -1.859375 61.75 -1.859375 L 61.75 0 L 35.078125 0 L 35.078125 -1.859375 C 35.078125 -1.859375 35.695312 -2.078125 36.9375 -2.515625 C 38.175781 -2.953125 39.414062 -4.070312 40.65625 -5.875 C 41.90625 -7.675781 42.53125 -10.691406 42.53125 -14.921875 L 42.53125 -80.59375 L 20.703125 -80.59375 L 20.703125 -14.921875 C 20.703125 -10.816406 21.320312 -7.832031 22.5625 -5.96875 C 23.8125 -4.101562 25.054688 -2.953125 26.296875 -2.515625 C 27.546875 -2.078125 28.171875 -1.859375 28.171875 -1.859375 L 28.171875 0 L 1.5 0 L 1.5 -1.859375 C 1.5 -1.859375 2.117188 -2.078125 3.359375 -2.515625 C 4.597656 -2.953125 5.835938 -4.070312 7.078125 -5.875 C 8.328125 -7.675781 8.953125 -10.691406 8.953125 -14.921875 L 8.953125 -115.65625 C 8.953125 -119.882812 8.328125 -122.898438 7.078125 -124.703125 C 5.835938 -126.503906 4.597656 -127.625 3.359375 -128.0625 C 2.117188 -128.5 1.5 -128.71875 1.5 -128.71875 L 1.5 -130.578125 L 28.171875 -130.578125 L 28.171875 -128.71875 C 28.171875 -128.71875 27.546875 -128.5 26.296875 -128.0625 C 25.054688 -127.625 23.8125 -126.441406 22.5625 -124.515625 C 21.320312 -122.585938 20.703125 -119.320312 20.703125 -114.71875 L 20.703125 -83.953125 L 42.53125 -83.953125 L 42.53125 -115.65625 C 42.53125 -119.882812 41.90625 -122.898438 40.65625 -124.703125 C 39.414062 -126.503906 38.175781 -127.625 36.9375 -128.0625 C 35.695312 -128.5 35.078125 -128.71875 35.078125 -128.71875 L 35.078125 -130.578125 Z M 61.75 -130.578125 "/></g></g></g></g></g><g transform="matrix(1, 0, 0, 1, 382, 109)"><g clip-path="url(#29835aac07)"><g fill="#4b1616" fill-opacity="1"><g transform="translate(1.304666, 387.203323)"><g><path d="M 137.375 -362.859375 L 192.3125 -362.859375 L 191.796875 -358.203125 C 191.796875 -358.203125 189.976562 -357.164062 186.34375 -355.09375 C 182.71875 -353.019531 178.832031 -348.785156 174.6875 -342.390625 C 170.539062 -335.992188 167.601562 -326.054688 165.875 -312.578125 L 122.859375 -50.28125 C 122.515625 -48.207031 122.34375 -46.304688 122.34375 -44.578125 C 122.34375 -42.847656 122.34375 -41.117188 122.34375 -39.390625 C 122.34375 -28.679688 123.722656 -20.992188 126.484375 -16.328125 C 129.242188 -11.660156 131.660156 -8.632812 133.734375 -7.25 C 135.117188 -6.5625 136.328125 -6.046875 137.359375 -5.703125 C 138.398438 -5.359375 138.921875 -5.1875 138.921875 -5.1875 L 139.96875 0 L 65.828125 0 L 65.3125 -5.1875 C 65.3125 -5.1875 66.519531 -5.875 68.9375 -7.25 C 71.363281 -8.632812 73.695312 -11.398438 75.9375 -15.546875 C 78.1875 -19.691406 79.3125 -26.085938 79.3125 -34.734375 C 79.3125 -37.148438 79.3125 -39.65625 79.3125 -42.25 C 79.3125 -44.84375 78.96875 -47.519531 78.28125 -50.28125 L 33.171875 -312.578125 C 31.097656 -326.054688 27.726562 -335.992188 23.0625 -342.390625 C 18.394531 -348.785156 14.160156 -353.019531 10.359375 -355.09375 C 6.566406 -357.164062 4.671875 -358.203125 4.671875 -358.203125 L 4.140625 -362.859375 L 77.75 -362.859375 L 78.796875 -358.203125 C 78.796875 -358.203125 77.671875 -357.507812 75.421875 -356.125 C 73.171875 -354.738281 70.835938 -351.882812 68.421875 -347.5625 C 66.003906 -343.25 64.796875 -336.597656 64.796875 -327.609375 C 64.796875 -325.191406 64.878906 -322.773438 65.046875 -320.359375 C 65.222656 -317.941406 65.484375 -315.347656 65.828125 -312.578125 L 109.890625 -54.421875 L 152.40625 -312.578125 C 152.75 -314.304688 152.921875 -316.117188 152.921875 -318.015625 C 152.921875 -319.921875 152.921875 -321.738281 152.921875 -323.46875 C 152.921875 -333.488281 151.625 -341.003906 149.03125 -346.015625 C 146.4375 -351.023438 143.753906 -354.304688 140.984375 -355.859375 C 138.222656 -357.421875 136.84375 -358.203125 136.84375 -358.203125 Z M 137.375 -362.859375 "/></g></g></g><g fill="#4b1616" fill-opacity="1"><g transform="translate(187.403156, 387.203323)"><g><path d="M 4.140625 -358.203125 L 4.140625 -362.859375 L 78.28125 -362.859375 L 78.28125 -358.203125 C 78.28125 -358.203125 76.550781 -357.164062 73.09375 -355.09375 C 69.632812 -353.019531 66.175781 -348.785156 62.71875 -342.390625 C 59.269531 -335.992188 57.546875 -326.054688 57.546875 -312.578125 L 57.546875 -50.28125 C 57.546875 -36.800781 59.269531 -26.863281 62.71875 -20.46875 C 66.175781 -14.082031 69.632812 -9.9375 73.09375 -8.03125 C 76.550781 -6.132812 78.28125 -5.1875 78.28125 -5.1875 L 78.28125 0 L 4.140625 0 L 4.140625 -5.1875 C 4.140625 -5.1875 5.867188 -6.132812 9.328125 -8.03125 C 12.785156 -9.9375 16.238281 -14.082031 19.6875 -20.46875 C 23.144531 -26.863281 24.875 -36.800781 24.875 -50.28125 L 24.875 -312.578125 C 24.875 -326.054688 23.144531 -335.992188 19.6875 -342.390625 C 16.238281 -348.785156 12.785156 -353.019531 9.328125 -355.09375 C 5.867188 -357.164062 4.140625 -358.203125 4.140625 -358.203125 Z M 4.140625 -358.203125 "/></g></g></g><g fill="#4b1616" fill-opacity="1"><g transform="translate(259.457913, 387.203323)"><g><path d="M 125.453125 -107.296875 L 132.703125 -107.296875 L 132.703125 0 L 4.140625 0 L 4.140625 -5.1875 C 4.140625 -5.1875 5.867188 -6.132812 9.328125 -8.03125 C 12.785156 -9.9375 16.238281 -14.082031 19.6875 -20.46875 C 23.144531 -26.863281 24.875 -36.800781 24.875 -50.28125 L 24.875 -312.578125 C 24.875 -326.054688 23.144531 -335.992188 19.6875 -342.390625 C 16.238281 -348.785156 12.785156 -353.019531 9.328125 -355.09375 C 5.867188 -357.164062 4.140625 -358.203125 4.140625 -358.203125 L 4.140625 -362.859375 L 77.75 -362.859375 L 77.75 -358.203125 C 77.75 -358.203125 76.109375 -357.078125 72.828125 -354.828125 C 69.546875 -352.578125 66.175781 -348.425781 62.71875 -342.375 C 59.269531 -336.332031 57.546875 -327.785156 57.546875 -316.734375 L 57.546875 -9.328125 L 98.484375 -9.328125 C 104.015625 -9.328125 108.421875 -12.609375 111.703125 -19.171875 C 114.992188 -25.742188 117.585938 -33.867188 119.484375 -43.546875 C 121.390625 -53.222656 122.769531 -62.984375 123.625 -72.828125 C 124.488281 -82.679688 125.007812 -90.890625 125.1875 -97.453125 C 125.363281 -104.015625 125.453125 -107.296875 125.453125 -107.296875 Z M 125.453125 -107.296875 "/></g></g></g><g fill="#4b1616" fill-opacity="1"><g transform="translate(385.942568, 387.203323)"><g><path d="M 125.453125 -107.296875 L 132.703125 -107.296875 L 132.703125 0 L 4.140625 0 L 4.140625 -5.1875 C 4.140625 -5.1875 5.867188 -6.132812 9.328125 -8.03125 C 12.785156 -9.9375 16.238281 -14.082031 19.6875 -20.46875 C 23.144531 -26.863281 24.875 -36.800781 24.875 -50.28125 L 24.875 -312.578125 C 24.875 -326.054688 23.144531 -335.992188 19.6875 -342.390625 C 16.238281 -348.785156 12.785156 -353.019531 9.328125 -355.09375 C 5.867188 -357.164062 4.140625 -358.203125 4.140625 -358.203125 L 4.140625 -362.859375 L 77.75 -362.859375 L 77.75 -358.203125 C 77.75 -358.203125 76.109375 -357.078125 72.828125 -354.828125 C 69.546875 -352.578125 66.175781 -348.425781 62.71875 -342.375 C 59.269531 -336.332031 57.546875 -327.785156 57.546875 -316.734375 L 57.546875 -9.328125 L 98.484375 -9.328125 C 104.015625 -9.328125 108.421875 -12.609375 111.703125 -19.171875 C 114.992188 -25.742188 117.585938 -33.867188 119.484375 -43.546875 C 121.390625 -53.222656 122.769531 -62.984375 123.625 -72.828125 C 124.488281 -82.679688 125.007812 -90.890625 125.1875 -97.453125 C 125.363281 -104.015625 125.453125 -107.296875 125.453125 -107.296875 Z M 125.453125 -107.296875 "/></g></g></g><g fill="#4b1616" fill-opacity="1"><g transform="translate(512.427192, 387.203323)"><g><path d="M 4.140625 0 L 4.671875 -4.671875 C 4.671875 -4.671875 6.484375 -5.707031 10.109375 -7.78125 C 13.734375 -9.851562 17.707031 -14.082031 22.03125 -20.46875 C 26.351562 -26.863281 29.203125 -36.800781 30.578125 -50.28125 L 73.609375 -312.578125 C 73.953125 -314.648438 74.125 -316.722656 74.125 -318.796875 C 74.125 -320.867188 74.125 -322.769531 74.125 -324.5 C 74.125 -334.863281 72.738281 -342.289062 69.96875 -346.78125 C 67.207031 -351.28125 64.789062 -354.222656 62.71875 -355.609375 C 61.34375 -356.296875 60.046875 -356.898438 58.828125 -357.421875 C 57.617188 -357.941406 57.015625 -358.203125 57.015625 -358.203125 L 56.5 -362.859375 L 130.109375 -362.859375 L 131.15625 -358.203125 C 131.15625 -358.203125 129.941406 -357.507812 127.515625 -356.125 C 125.097656 -354.738281 122.679688 -351.972656 120.265625 -347.828125 C 117.847656 -343.679688 116.640625 -337.113281 116.640625 -328.125 C 116.640625 -323.632812 117.15625 -318.453125 118.1875 -312.578125 C 125.789062 -268.691406 133.304688 -224.972656 140.734375 -181.421875 C 148.171875 -137.878906 155.6875 -94.164062 163.28125 -50.28125 C 165.707031 -36.800781 169.078125 -26.863281 173.390625 -20.46875 C 177.710938 -14.082031 181.773438 -9.851562 185.578125 -7.78125 C 189.378906 -5.707031 191.28125 -4.671875 191.28125 -4.671875 L 192.3125 0 L 120.265625 0 L 119.75 -5.1875 C 119.75 -5.1875 120.867188 -5.875 123.109375 -7.25 C 125.359375 -8.632812 127.601562 -11.488281 129.84375 -15.8125 C 132.09375 -20.132812 133.21875 -26.613281 133.21875 -35.25 C 133.21875 -37.320312 133.21875 -39.738281 133.21875 -42.5 C 133.21875 -45.269531 132.875 -47.863281 132.1875 -50.28125 L 120.78125 -123.375 L 54.953125 -123.375 C 54.253906 -118.53125 53.039062 -111.269531 51.3125 -101.59375 C 49.59375 -91.925781 47.953125 -82.164062 46.390625 -72.3125 C 44.835938 -62.46875 43.71875 -55.125 43.03125 -50.28125 C 42.675781 -48.550781 42.5 -46.734375 42.5 -44.828125 C 42.5 -42.929688 42.5 -41.117188 42.5 -39.390625 C 42.5 -29.367188 43.878906 -21.851562 46.640625 -16.84375 C 49.410156 -11.832031 52.09375 -8.550781 54.6875 -7 C 57.28125 -5.445312 58.578125 -4.671875 58.578125 -4.671875 L 58.0625 0 Z M 55.46875 -134.78125 L 118.1875 -134.265625 L 85.53125 -317.765625 L 57.015625 -134.78125 Z M 55.46875 -134.78125 "/></g></g></g></g></g></svg>